<?xml version="1.0" encoding="UTF-8"?>
<svg id="Layer_1" data-name="Layer 1" xmlns="http://www.w3.org/2000/svg" viewBox="0 0 238.5 238.5">
  <defs>
    <style>
      .cls-1 {
        fill: #fbfcfb;
      }

      .cls-2 {
        fill: #232938;
      }

      .cls-3 {
        fill: #f8f9f9;
      }

      .cls-4 {
        fill: #9ee6fc;
      }

      .cls-5 {
        fill: #d6d7d8;
      }

      .cls-6 {
        fill: #b4b4b6;
      }
    </style>
  </defs>
  <path class="cls-2" d="M165.52,130.51c6.53,5.55,10.27,11.95,4.99,18.8-4.94,6.41-11.98,5.2-17.5,6.77-4.2,1.2-7.32,7.58-16.74,9.08-3.14.5-6.16.08-9.15,1.54,2.7,6.97,9.92,13.03,8.23,18.8-1.69,5.76-6.35,10.16-12.38,11.12-3.62-1.17-7.52-2.38-8.02-4.61,3.29.69,6.96,4.03,10.82.91.43-.35-.21-1.79-.45-2.06.19-.25.47-.75.76-.9.49-.25,1.46-.19,1.99.86,1.05.99,2.19-.47,1.17-1.46-.62-.6-.79-1.75-.53-2.14.29-.44,1.39-.42,1.79-.22l1.04-1.14c-.35-1.08-.09-2.26,1.17-3.36-2.53-5.42-5.72-10.46-9.12-15.39-1.62-2.35-3.78-2.92-6.3-3.73-8.96-2.88-20.68-12.45-19.39-16.66.15-.49,1.55-.75,1.91-.14l1.43,2.37c12.05,15.55,37.57,15.37,39.03,12.28.25-.53,0-1.37-.28-1.86.11-.51.34-1.24.69-1.49,1.23-.88,2.27,1.67,2.86,1.72.54.04,1.65-.6,1.31-1.8-.16-.56-.28-1.84.2-2.09.46-.25,1.42.17,2.14.83.42.28,1.32-1.23.95-1.96-.24-.48-1.15-.89-1.32-1.91l-.72-4.24c-7.04-6.78-16.38-6.92-25.61-13.63-1.21-.88-2.08-1.61-1.91-3.14,1.28-.13,2.88-.13,3.97,1.13.94,1.09,2.34,1.01,3.06,1.51,4.13,2.86,9.01,4.38,13.74,5.88,1.36.43,2.66,1.72,4.57,2.2.97-2.73.27-4.9.09-7.12l-.23-2.86c.77-.16,1.54-.2,2.37-.14l.61,1.68c1.15,3.2.56,6.87-.15,10.57l4.69,6.65c1.5,2.13,6.64,1.43,8.62.52,1.19-.55.7-2.15.45-2.72-.23-.51-.05-1.73.45-2.04,1.83-1.13,1.88,3.11,3.57,2.78,2.12-.42.04-4.42,1.01-4.64,1.51-.35,2.32,1.05,2.64,2.46,7.29-5.28-1.84-12.66-9.67-19.15l-7.67-6.37-6.85,4.36c-.38.24-1.07.6-1.47.73-4.65,1.52-9.26,3.25-14.14,3.74l-.02-2.89c11.08-1.69,21.37-7.18,28.45-16.45,9.18-12.03,5.39-28.88-2.36-42.15,2.29-2.43,5.77-3.99,7.08-7.08,3.17-7.46-1.88-16.31-9.98-17.12-5.2-.52-9.44,3.43-12.26,6.74-6.43-2.54-14.22-2.95-20.96-1.09-.69-.88-1.74-1.7-2.26-1.58-1.04.24-2.34,2.39-3.67,1.85-.45-.18-.98-.63-1.6-1.37-1.46.78-2.17,1.98-3.6,3.31l-2.94-2.27c-5.57,4.79-12.33,5.29-14.88,12.03-2.73-4.1-6.72-5.26-11.2-4.43-3.24.6-6.26,3.2-8.01,6.83-1.82,3.77-1.98,7.84.57,11.86,1.62,2.55,4.92,5.08,9.42,6.01-4.21,14.28-7.45,29.61,5.65,37.31,1.43.5,1.4,1.91,1.59,2.74-2.8.04-2.23,3.2-2.89,4.5-1.85,3.65-4.09,16.2-5.21,22.85-1,5.97-2.11,12.13-.97,18.63,3.98,22.76,23.85,14.54,34.25,21.55,2.78.08,4.86.98,5.19,2.32.11.44.07,1.1-.26,1.29-.74.42-2.7-1.56-3.94-1.95-.12-.04-.59-.17-1.04-.36-.06-.02-.23-.1-.47-.19-.18-.07-.33-.12-.42-.15l-1.42-.59c-8.93-1.73-17.85-3.04-26.25-6.69-5.03-2.19-7.38-8.29-8.29-12.99-2.09-10.83,1.01-24,3.6-35.64,1-4.49,1.65-8.74,4.07-13.22-12.1-8.07-11.22-22.68-6.67-36.76-3.09-2.3-6.4-3.77-8.53-6.87-4.05-5.88-2.99-13.16,1.23-18.65,3.93-5.11,11.55-6.73,17.89-4.22,2.11.83,3.16-.35,4.65-1.25,4.73-2.88,9.53-5.09,13.94-8.55.62-.49,1.15-1.31,1.92-1.25.59.05,1.38.47,2.17,1.29,3.09-1.76,6.67-3.73,10.38-2.41.66.97-1.03,2.4-2.05,3.54,7.11-.87,12.98-.99,19.43.4,3.56-3.57,8.68-6.17,13.76-5.82,9.14.62,14.79,9.43,13.73,18.28-.52,4.36-3.75,7.23-7.32,9.83,9.94,16.94,11.11,36.79-4.7,49.91l12.46,10.58ZM131.77,186.11l-.69,1.5c.03.11,2.19,0,.69-1.5Z"/>
  <path class="cls-5" d="M125.33,190.87c.24.27.88,1.71.45,2.06-3.86,3.12-7.54-.22-10.82-.91-.95-.2-1.68-.84-2.48-1.38-10.4-7.01-30.27,1.21-34.25-21.55-1.14-6.5-.03-12.66.97-18.63,1.04.3,1.17,1.09,1.16,2.23-.06,6.35-.4,12.9,2.24,18.79s8.48,9.18,14.43,10.17c8.57,1.43,16.17,4.33,23.54,8.68,1.38.81,3.55.43,4.76.54Z"/>
  <path class="cls-1" d="M128.24,127.96c-4.04.62-7.9,1.89-12.23,1.72.37,1.9,1.77,2.1,2.58,2.02-.17,1.53.7,2.26,1.91,3.14,9.23,6.71,18.56,6.85,25.61,13.63l.72,4.24c.17,1.02,1.08,1.43,1.32,1.91.37.74-.53,2.24-.95,1.96-.72-.66-1.68-1.07-2.14-.83s-.36,1.54-.2,2.09c.34,1.2-.77,1.84-1.31,1.8-.59-.05-1.63-2.6-2.86-1.72-.35.25-.59.98-.69,1.49-13.91,1.86-23.28-.78-35.13-8.78-1.29-.87-2.13-1.88-3.63-1.64l-1.43-2.37c-.37-.61-1.76-.35-1.91.14-1.29,4.21,10.43,13.78,19.39,16.66,2.53.81,4.68,1.38,6.3,3.73,3.4,4.93,6.58,9.97,9.12,15.39-1.25,1.1-1.52,2.28-1.17,3.36.05.18.16.24.22.23,1.5,1.49-.66,1.62-.69,1.5-.23-.37-.45-.59-.58-.6-.41-.2-1.5-.22-1.79.22-.25.39-.09,1.54.53,2.14,1.03.99-.12,2.45-1.17,1.46-.53-1.05-1.51-1.11-1.99-.86-.29.15-.57.65-.76.9-1.2-.12-3.38.27-4.76-.54-7.37-4.35-14.97-7.25-23.54-8.68-5.95-.99-11.88-4.48-14.43-10.17s-2.31-12.44-2.24-18.79c.01-1.13-.11-1.93-1.16-2.23,1.12-6.65,3.36-19.2,5.21-22.85,5.2,7.11,16.11,9.06,23.06,2.5-7.88-.56-14.84-2.92-20.17-6.99-.19-.83-.17-2.24-1.59-2.74-13.1-7.7-9.86-23.03-5.65-37.31-4.51-.94-7.8-3.46-9.42-6.01-2.55-4.02-2.39-8.09-.57-11.86s4.77-6.23,8.01-6.83c4.48-.83,8.47.32,11.2,4.43,2.55-6.74,9.32-7.23,14.88-12.03l2.94,2.27c1.43-1.34,2.14-2.53,3.6-3.31.61.73,1.14,1.18,1.6,1.37,1.33.54,2.62-1.62,3.67-1.85.52-.12,1.57.7,2.26,1.58,6.74-1.86,14.53-1.44,20.96,1.09,2.82-3.32,7.06-7.27,12.26-6.74,8.1.82,13.15,9.67,9.98,17.12-1.31,3.09-4.79,4.65-7.08,7.08,7.75,13.27,11.54,30.13,2.36,42.15-7.08,9.27-17.37,14.76-28.45,16.45ZM146.51,55.55l5.84,6.75c.62.72,1.11,1.51,1.69,1.66.47.12,1.16-.85,1.78-.98,1.47-.32,3.24-.6,3.56-2.81.57-4.05-1.9-8.78-6.03-9.86-3.02-.79-7.54,1.81-8.17,3.72-.36,1.07.98,1.12,1.33,1.52ZM77.1,77.23c.9-.34,2.01-.04,2.65-.4.7-.4.56-1.47,1.07-2.55l3.23-6.86c.27-.57,2.14-1.22,1.27-2.32-2.01-2.58-6.09-2.8-8.78-1.4-2.98,1.55-4.32,4.96-4.1,8.68.16,2.66,2.07,5.83,4.64,4.86ZM142.59,63.94c-2.02-.88-4.18-2.02-6.42-.65,1.89,2.06,4.29,4.03,7.13,3.93,1.05-.04.59-2.71-.71-3.28ZM94.17,74.11c-2.94-.25-6.26,3.65-4.77,5.81,2.25.84,5.14-3.64,4.77-5.81ZM147.73,97.96c-.08,1.88-2.11,4.57-.56,6.43,1.91,2.28,5.66,1.46,8.08.48,2.1-.85,3.1-2.4,3.05-4.31-.12-4.68-6.67-3.3-6.74-4.97-.07-1.57-.46-3.03-2.25-3.5-1.45-.38-3.11.08-3.6,1.91-.39,1.47.06,3.5,2.02,3.96ZM118.49,103.89c-1.25.37-3.73.81-3.53,2.91-.29.38-1.11.58-1.33.93-.46.72-.15,1.82-.03,2.55.63,3.89,3.76,4.93,6.14,6.21,3.59,1.92,5.99-.84,9.18-1.08,6.5-.5,11.95-4.1,11.62-11.3-.06-1.22-1.27-1.39-2.28-1.66s-1.99-2.23-3.99-1.3c-1.27-2.66-4.02-2.93-6.73-2.85-3.85.12-7.51,2.29-9.06,5.58ZM99.53,109.28l-3.51,1.54c-1.96.86-3.08,4.24-1.55,5.95,2.02,2.26,5.22,1.65,7.85.94s4.72-3.01,3.54-5.68c-.73-1.65-2.98-2.02-4.42-2.6.66-1.27,1.3-2.7.98-4.15-.28-1.26-1.8-2.48-3.39-2.39-1.97.11-2.81,2.12-2.65,3.49.21,1.83,1.26,2.79,3.14,2.89Z"/>
  <path class="cls-3" d="M160.38,148.99c-5.24,1.31-9.32-7.06-11.72-13.84-.34-.97-1.17-1.26-1.9-1.17l-.61-1.68c-.09-2.24-1.46-3.86-2.29-5.92l6.85-4.36,7.67,6.37c7.83,6.5,16.96,13.87,9.67,19.15-.32-1.41-1.13-2.81-2.64-2.46-.97.23,1.11,4.22-1.01,4.64-1.69.34-1.75-3.91-3.57-2.78-.51.31-.68,1.53-.45,2.04Z"/>
  <path class="cls-3" d="M142.41,127.11c.23,1.9.01,3.96,1.38,5.33l.23,2.86c-1.44-.14-2.69,2.35-4.66,4.92-4.73-1.5-9.61-3.02-13.74-5.88,1.34-.9,2.24-2.08,2.64-3.49,4.88-.49,9.49-2.23,14.14-3.74Z"/>
  <path class="cls-5" d="M87.3,123.1c5.33,4.07,12.29,6.44,20.17,6.99-6.95,6.56-17.86,4.62-23.06-2.5.66-1.3.08-4.46,2.89-4.5Z"/>
  <path class="cls-5" d="M140,159.41c.29.48.53,1.32.28,1.86-1.46,3.09-26.98,3.27-39.03-12.28,1.49-.24,2.33.77,3.63,1.64,11.85,8,21.21,10.64,35.13,8.78Z"/>
  <path class="cls-5" d="M160.38,148.99c.25.57.74,2.17-.45,2.72-1.98.91-7.12,1.61-8.62-.52l-4.69-6.65c.71-3.69,1.31-7.36.15-10.57.73-.09,1.56.2,1.9,1.17,2.4,6.78,6.47,15.15,11.72,13.84Z"/>
  <path class="cls-5" d="M128.24,127.96l.02,2.89c-.41,1.41-1.31,2.59-2.64,3.49-.72-.5-2.12-.41-3.06-1.51-1.09-1.27-2.69-1.26-3.97-1.13-.81.08-2.21-.12-2.58-2.02,4.33.17,8.19-1.11,12.23-1.72Z"/>
  <path class="cls-5" d="M144.02,135.31c.18,2.22.88,4.39-.09,7.12-1.91-.48-3.21-1.77-4.57-2.2,1.97-2.57,3.22-5.05,4.66-4.92Z"/>
  <path class="cls-5" d="M143.87,126.39c.82,2.06,2.2,3.68,2.29,5.92-.83-.07-1.6-.03-2.37.14-1.37-1.37-1.16-3.44-1.38-5.33.4-.13,1.08-.48,1.47-.73Z"/>
  <path class="cls-2" d="M134.28,101.16c1.07,5.8-4.2,6.44-4.93,8.43-.25.69.21,2.79.99,2.77,5.51-.13,8.1-5.04,7.92-9.91,1,.26,2.22.43,2.28,1.66.33,7.2-5.12,10.81-11.62,11.3-3.18.24-5.59,3-9.18,1.08-2.39-1.28-5.52-2.32-6.14-6.21-.12-.73-.43-1.83.03-2.55.23-.35,1.04-.55,1.33-.93,1.09,4.6,4.27,8.05,9.23,7.32,1.35-.2,2.22-.87,2.66-1.66.48-.85.07-3.28-.78-3.21-4.14.31-7.05-1.46-7.59-5.36,1.56-3.3,5.22-5.46,9.06-5.58,2.71-.08,5.46.19,6.73,2.85Z"/>
  <path class="cls-4" d="M101.44,109.44c1.43.58,3.68.95,4.42,2.6,1.18,2.66-.94,4.98-3.54,5.68s-5.83,1.31-7.85-.94c-1.53-1.71-.41-5.09,1.55-5.95l3.51-1.54c.53-.23,1.33-.07,1.91.16Z"/>
  <path class="cls-4" d="M147.73,97.96c.88.1,1.89.17,2.84-.39.55-.32.87-1.26.99-1.98.07,1.67,6.62.29,6.74,4.97.05,1.91-.95,3.46-3.05,4.31-2.42.98-6.17,1.8-8.08-.48-1.55-1.86.48-4.54.56-6.43Z"/>
  <path class="cls-2" d="M84.06,67.42c-1.9-1.71-4.62-2.5-6.51-1.12-1.71,1.25-2.82,3.71-2.47,6.09.28,1.88,1.76,3.06,2.02,4.83-2.58.97-4.48-2.2-4.64-4.86-.22-3.71,1.12-7.13,4.1-8.68,2.68-1.39,6.77-1.18,8.78,1.4.86,1.11-1,1.75-1.27,2.32Z"/>
  <path class="cls-6" d="M84.06,67.42l-3.23,6.86c-.51,1.08-.37,2.15-1.07,2.55-.64.37-1.76.06-2.65.4-.25-1.78-1.74-2.96-2.02-4.83-.36-2.37.76-4.84,2.47-6.09,1.89-1.38,4.61-.59,6.51,1.12Z"/>
  <path class="cls-6" d="M118.49,103.89c.54,3.9,3.45,5.67,7.59,5.36.85-.06,1.26,2.37.78,3.21-.45.79-1.32,1.46-2.66,1.66-4.97.74-8.15-2.71-9.23-7.32-.2-2.1,2.28-2.54,3.53-2.91Z"/>
  <path class="cls-6" d="M155.83,62.98c-.62.14-1.31,1.11-1.78.98-.58-.15-1.07-.94-1.69-1.66l-5.84-6.75c1.81-.96,3.47-2.57,5.63-2.55,2.3.02,3.76,2.24,4.3,3.64.88,2.26.05,4.21-.62,6.34Z"/>
  <path class="cls-2" d="M155.83,62.98c.66-2.13,1.49-4.08.62-6.34-.54-1.4-2-3.62-4.3-3.64-2.16-.02-3.82,1.59-5.63,2.55-.35-.4-1.69-.45-1.33-1.52.64-1.91,5.16-4.52,8.17-3.72,4.13,1.09,6.6,5.82,6.03,9.86-.31,2.21-2.09,2.48-3.56,2.81Z"/>
  <path class="cls-6" d="M138.26,102.46c.17,4.87-2.41,9.77-7.92,9.91-.78.02-1.24-2.08-.99-2.77.72-1.99,5.99-2.63,4.93-8.43,1.99-.93,2.99,1.04,3.99,1.3Z"/>
  <path class="cls-2" d="M101.44,109.44c-.59-.24-1.38-.4-1.91-.16-1.88-.1-2.93-1.06-3.14-2.89-.16-1.37.67-3.37,2.65-3.49,1.59-.09,3.11,1.13,3.39,2.39.32,1.45-.32,2.87-.98,4.15Z"/>
  <path class="cls-2" d="M151.57,95.59c-.13.72-.45,1.66-.99,1.98-.95.56-1.96.49-2.84.39-1.96-.45-2.41-2.49-2.02-3.96.49-1.84,2.15-2.29,3.6-1.91,1.79.47,2.18,1.93,2.25,3.5Z"/>
  <path class="cls-5" d="M142.59,63.94c1.3.57,1.76,3.24.71,3.28-2.84.1-5.24-1.87-7.13-3.93,2.24-1.37,4.4-.23,6.42.65Z"/>
  <path class="cls-5" d="M94.17,74.11c.37,2.18-2.52,6.66-4.77,5.81-1.48-2.16,1.83-6.07,4.77-5.81Z"/>
</svg>